<svg width="78" height="100" viewBox="0 0 78 100" fill="none" xmlns="http://www.w3.org/2000/svg">
<path d="M14.5268 69.7725C12.7028 69.7725 10.9028 69.1485 9.12677 67.9005C7.20677 66.5565 6.24677 64.9725 6.24677 63.1485C6.24677 60.8925 7.42277 59.1885 9.77477 58.0365C11.5508 57.1245 13.7108 56.6685 16.2548 56.6685C17.5988 56.6685 19.0148 56.7885 20.5028 57.0285C21.9908 57.2685 23.5748 57.6285 25.2548 58.1085C28.7588 53.8845 31.8308 48.5565 34.4708 42.1245C34.1348 41.0205 33.8708 40.0605 33.6788 39.2445C33.5348 38.3805 33.4628 37.6365 33.4628 37.0125C33.4628 35.2845 33.7988 34.4205 34.4708 34.4205C35.2388 34.4205 35.9108 35.1885 36.4868 36.7245C38.2148 33.3165 39.9428 27.4365 41.6708 19.0845C31.6868 19.4205 24.0308 22.3245 18.7028 27.7965C16.7828 29.7165 15.8228 31.9005 15.8228 34.3485C15.8228 36.2685 16.4708 38.0205 17.7668 39.6045C18.9188 41.0445 20.4548 42.1485 22.3748 42.9165C22.6628 43.0125 23.0468 43.1325 23.5268 43.2765C24.0068 43.4205 24.5588 43.5645 25.1828 43.7085C25.4708 43.7565 25.6148 43.8525 25.6148 43.9965C25.6148 44.2365 25.4468 44.3565 25.1108 44.3565L24.8948 44.2845C21.9188 44.0445 19.1348 42.8205 16.5428 40.6125C13.7108 38.2125 12.2948 35.5725 12.2948 32.6925C12.2948 30.5325 13.1828 28.5645 14.9588 26.7885C17.9828 23.6685 22.1828 21.3645 27.5588 19.8765C32.0228 18.5805 36.8228 17.9325 41.9588 17.9325C42.0548 16.9245 42.1988 15.8925 42.3908 14.8365C42.6308 13.7325 42.8948 12.6285 43.1828 11.5245C43.3748 11.5725 43.4708 12.1245 43.4708 13.1805C43.4708 13.8045 43.4228 14.5245 43.3268 15.3405C43.2308 16.1085 43.0868 16.9725 42.8948 17.9325C44.7188 17.9805 46.4948 18.1005 48.2228 18.2925C49.9988 18.4365 51.7028 18.7005 53.3348 19.0845C56.2628 16.3965 59.2388 15.0525 62.2628 15.0525C64.0388 15.0525 65.5268 15.6765 66.7268 16.9245C67.9268 18.1725 68.5268 19.6845 68.5268 21.4605C68.5268 22.1325 68.4068 22.4685 68.1668 22.4685C67.9748 22.4685 67.8068 21.7965 67.6628 20.4525C67.3748 18.2925 65.8148 17.2125 62.9828 17.2125C61.0628 17.2125 58.9748 18.1245 56.7188 19.9485C59.6948 20.8605 62.2388 22.1565 64.3508 23.8365C66.9908 25.9005 68.3108 28.2765 68.3108 30.9645C68.3108 34.2285 66.4388 36.7965 62.6948 38.6685C59.8148 40.1565 56.5508 40.9965 52.9028 41.1885C62.8388 45.7965 67.8068 51.2445 67.8068 57.5325C67.8068 60.5085 66.5588 63.0045 64.0628 65.0205C61.6148 67.0365 58.8548 68.0445 55.7828 68.0445C51.1748 68.0445 47.0948 67.4685 43.5428 66.3165L32.1668 61.6365C30.8228 63.2205 29.5028 64.5405 28.2068 65.5965C26.9588 66.7005 25.7108 67.5165 24.4628 68.0445C22.0148 69.1965 18.7028 69.7725 14.5268 69.7725ZM30.0068 59.6925C31.9748 57.5325 34.2068 53.7885 36.7028 48.4605C37.8548 45.9645 39.0068 43.4925 40.1588 41.0445C41.3108 38.5485 42.4868 36.0525 43.6868 33.5565C45.2228 30.4845 46.7108 27.8205 48.1508 25.5645C49.6388 23.3085 51.0788 21.4365 52.4708 19.9485C49.3988 19.3725 46.3268 19.0845 43.2548 19.0845H42.6788C41.6708 23.7405 40.0148 29.4285 37.7108 36.1485C38.3828 35.7645 38.8868 35.5725 39.2228 35.5725C39.6068 35.5725 39.7988 35.8125 39.7988 36.2925C39.7988 37.6365 38.2388 39.7485 35.1188 42.6285C33.7748 45.7005 32.3348 48.5565 30.7988 51.1965C29.3108 53.7885 27.6788 56.1645 25.9028 58.3245C26.5748 58.5165 27.2468 58.7325 27.9188 58.9725C28.6388 59.2125 29.3348 59.4525 30.0068 59.6925ZM55.2788 66.5325C61.7588 66.5325 64.9988 64.3245 64.9988 59.9085C64.9988 54.0045 60.9908 49.1085 52.9748 45.2205C52.4948 45.0285 51.8948 44.7885 51.1748 44.5005C50.4548 44.1645 49.6148 43.7805 48.6548 43.3485C48.5108 43.2525 48.4388 43.0125 48.4388 42.6285C48.4388 41.2845 49.1348 40.4685 50.5268 40.1805H51.9668C52.3988 40.1325 52.8308 40.0845 53.2628 40.0365C53.6948 39.9885 54.1028 39.9405 54.4868 39.8925C57.3188 39.3645 59.6228 38.4045 61.3988 37.0125C63.6068 35.3805 64.7108 33.2685 64.7108 30.6765C64.7108 28.3245 63.7748 26.2125 61.9028 24.3405C60.2708 22.8045 58.2308 21.6285 55.7828 20.8125C52.9028 23.4525 50.1428 27.4605 47.5028 32.8365L40.8068 47.5245C38.1668 53.2365 35.5748 57.6045 33.0308 60.6285L43.9028 64.5165C47.9828 65.8605 51.7748 66.5325 55.2788 66.5325ZM15.0308 68.1165C17.5268 68.1165 20.1908 67.3725 23.0228 65.8845C25.9508 64.3965 28.0628 62.6685 29.3588 60.7005C28.7348 60.3645 28.0868 60.0525 27.4148 59.7645C26.7908 59.4765 26.0948 59.2125 25.3268 58.9725C22.4948 62.3805 20.0468 64.0845 17.9828 64.0845C16.9748 64.0845 16.4708 63.7965 16.4708 63.2205C16.4708 62.9805 16.6148 62.8605 16.9028 62.8605C16.9988 62.8605 17.1908 62.8845 17.4788 62.9325C17.7668 63.0285 17.9828 63.0765 18.1268 63.0765C19.9508 63.0765 22.1348 61.6605 24.6788 58.8285C21.6068 57.8205 18.6788 57.3165 15.8948 57.3165C13.9268 57.3165 12.1508 57.6525 10.5668 58.3245C8.55077 59.1885 7.54277 60.5325 7.54277 62.3565C7.54277 64.0845 8.38277 65.5005 10.0628 66.6045C11.5988 67.6125 13.2548 68.1165 15.0308 68.1165Z" fill="white"/>
<path d="M2.784 92.2509C2.176 92.2509 1.576 92.0429 0.984 91.6269C0.344 91.1789 0.024 90.6509 0.024 90.0429C0.024 89.2909 0.416 88.7229 1.2 88.3389C1.792 88.0349 2.512 87.8829 3.36 87.8829C3.808 87.8829 4.28 87.9229 4.776 88.0029C5.272 88.0829 5.8 88.2029 6.36 88.3629C7.528 86.9549 8.552 85.1789 9.432 83.0349C9.32 82.6669 9.232 82.3469 9.168 82.0749C9.12 81.7869 9.096 81.5389 9.096 81.3309C9.096 80.7549 9.208 80.4669 9.432 80.4669C9.688 80.4669 9.912 80.7229 10.104 81.2349C10.68 80.0989 11.256 78.1389 11.832 75.3549C8.504 75.4669 5.952 76.4349 4.176 78.2589C3.536 78.8989 3.216 79.6269 3.216 80.4429C3.216 81.0829 3.432 81.6669 3.864 82.1949C4.248 82.6749 4.76 83.0429 5.4 83.2989C5.496 83.3309 5.624 83.3709 5.784 83.4189C5.944 83.4669 6.128 83.5149 6.336 83.5629C6.432 83.5789 6.48 83.6109 6.48 83.6589C6.48 83.7389 6.424 83.7789 6.312 83.7789L6.24 83.7549C5.248 83.6749 4.32 83.2669 3.456 82.5309C2.512 81.7309 2.04 80.8509 2.04 79.8909C2.04 79.1709 2.336 78.5149 2.928 77.9229C3.936 76.8829 5.336 76.1149 7.128 75.6189C8.616 75.1869 10.216 74.9709 11.928 74.9709C11.96 74.6349 12.008 74.2909 12.072 73.9389C12.152 73.5709 12.24 73.2029 12.336 72.8349C12.4 72.8509 12.432 73.0349 12.432 73.3869C12.432 73.5949 12.416 73.8349 12.384 74.1069C12.352 74.3629 12.304 74.6509 12.24 74.9709C12.848 74.9869 13.44 75.0269 14.016 75.0909C14.608 75.1389 15.176 75.2269 15.72 75.3549C16.696 74.4589 17.688 74.0109 18.696 74.0109C19.288 74.0109 19.784 74.2189 20.184 74.6349C20.584 75.0509 20.784 75.5549 20.784 76.1469C20.784 76.3709 20.744 76.4829 20.664 76.4829C20.6 76.4829 20.544 76.2589 20.496 75.8109C20.4 75.0909 19.88 74.7309 18.936 74.7309C18.296 74.7309 17.6 75.0349 16.848 75.6429C17.84 75.9469 18.688 76.3789 19.392 76.9389C20.272 77.6269 20.712 78.4189 20.712 79.3149C20.712 80.4029 20.088 81.2589 18.84 81.8829C17.88 82.3789 16.792 82.6589 15.576 82.7229C18.888 84.2589 20.544 86.0749 20.544 88.1709C20.544 89.1629 20.128 89.9949 19.296 90.6669C18.48 91.3389 17.56 91.6749 16.536 91.6749C15 91.6749 13.64 91.4829 12.456 91.0989L8.664 89.5389C8.216 90.0669 7.776 90.5069 7.344 90.8589C6.928 91.2269 6.512 91.4989 6.096 91.6749C5.28 92.0589 4.176 92.2509 2.784 92.2509ZM7.944 88.8909C8.6 88.1709 9.344 86.9229 10.176 85.1469C10.56 84.3149 10.944 83.4909 11.328 82.6749C11.712 81.8429 12.104 81.0109 12.504 80.1789C13.016 79.1549 13.512 78.2669 13.992 77.5149C14.488 76.7629 14.968 76.1389 15.432 75.6429C14.408 75.4509 13.384 75.3549 12.36 75.3549H12.168C11.832 76.9069 11.28 78.8029 10.512 81.0429C10.736 80.9149 10.904 80.8509 11.016 80.8509C11.144 80.8509 11.208 80.9309 11.208 81.0909C11.208 81.5389 10.688 82.2429 9.648 83.2029C9.2 84.2269 8.72 85.1789 8.208 86.0589C7.712 86.9229 7.168 87.7149 6.576 88.4349C6.8 88.4989 7.024 88.5709 7.248 88.6509C7.488 88.7309 7.72 88.8109 7.944 88.8909ZM16.368 91.1709C18.528 91.1709 19.608 90.4349 19.608 88.9629C19.608 86.9949 18.272 85.3629 15.6 84.0669C15.44 84.0029 15.24 83.9229 15 83.8269C14.76 83.7149 14.48 83.5869 14.16 83.4429C14.112 83.4109 14.088 83.3309 14.088 83.2029C14.088 82.7549 14.32 82.4829 14.784 82.3869H15.264C15.408 82.3709 15.552 82.3549 15.696 82.3389C15.84 82.3229 15.976 82.3069 16.104 82.2909C17.048 82.1149 17.816 81.7949 18.408 81.3309C19.144 80.7869 19.512 80.0829 19.512 79.2189C19.512 78.4349 19.2 77.7309 18.576 77.1069C18.032 76.5949 17.352 76.2029 16.536 75.9309C15.576 76.8109 14.656 78.1469 13.776 79.9389L11.544 84.8349C10.664 86.7389 9.8 88.1949 8.952 89.2029L12.576 90.4989C13.936 90.9469 15.2 91.1709 16.368 91.1709ZM2.952 91.6989C3.784 91.6989 4.672 91.4509 5.616 90.9549C6.592 90.4589 7.296 89.8829 7.728 89.2269C7.52 89.1149 7.304 89.0109 7.08 88.9149C6.872 88.8189 6.64 88.7309 6.384 88.6509C5.44 89.7869 4.624 90.3549 3.936 90.3549C3.6 90.3549 3.432 90.2589 3.432 90.0669C3.432 89.9869 3.48 89.9469 3.576 89.9469C3.608 89.9469 3.672 89.9549 3.768 89.9709C3.864 90.0029 3.936 90.0189 3.984 90.0189C4.592 90.0189 5.32 89.5469 6.168 88.6029C5.144 88.2669 4.168 88.0989 3.24 88.0989C2.584 88.0989 1.992 88.2109 1.464 88.4349C0.792 88.7229 0.456 89.1709 0.456 89.7789C0.456 90.3549 0.736 90.8269 1.296 91.1949C1.808 91.5309 2.36 91.6989 2.952 91.6989ZM23.2838 89.6109C22.6598 89.6109 22.3478 89.2109 22.3478 88.4109C22.3478 87.4349 22.7158 86.4349 23.4518 85.4109C23.1958 84.7869 23.0678 84.1229 23.0678 83.4189C23.0678 82.7309 23.2038 82.1309 23.4758 81.6189C23.9878 80.6109 24.6438 80.1069 25.4438 80.1069C26.4358 80.1069 27.0118 80.9549 27.1718 82.6509C27.5718 82.6669 27.8678 82.7949 28.0598 83.0349C28.2678 83.2589 28.3718 83.5789 28.3718 83.9949C28.3718 84.3149 28.3318 84.5469 28.2518 84.6909C28.1878 84.8189 28.1238 84.8829 28.0598 84.8829C27.9958 84.8829 27.9638 84.8509 27.9638 84.7869C27.9638 84.7069 27.9718 84.6109 27.9878 84.4989C28.0198 84.3869 28.0358 84.2509 28.0358 84.0909C28.0358 83.8669 27.9558 83.6989 27.7958 83.5869C27.6358 83.4589 27.4358 83.3949 27.1958 83.3949C27.0038 85.3469 26.5318 86.8429 25.7798 87.8829H26.5238C26.3158 88.0109 26.1318 88.0749 25.9718 88.0749C25.9398 88.0749 25.8918 88.0669 25.8278 88.0509C25.7798 88.0349 25.7398 88.0269 25.7078 88.0269C25.7398 88.0429 25.4598 88.3069 24.8678 88.8189C24.2438 89.3469 23.7158 89.6109 23.2838 89.6109ZM23.7158 85.1469C24.6918 83.8349 25.7158 83.0189 26.7878 82.6989C26.4678 81.3229 26.0278 80.6349 25.4678 80.6349C24.9558 80.6349 24.4838 81.1389 24.0518 82.1469C23.7798 82.8189 23.6438 83.5309 23.6438 84.2829C23.6438 84.5869 23.6678 84.8749 23.7158 85.1469ZM25.0117 87.7629C25.3958 87.4109 25.7878 86.7229 26.1878 85.6989C26.6038 84.6429 26.8118 83.8669 26.8118 83.3709C26.4598 83.4189 25.9078 83.7469 25.1558 84.3549C24.4198 84.9469 23.9638 85.4189 23.7878 85.7709C24.1238 86.9869 24.5318 87.6509 25.0117 87.7629ZM23.3558 88.8909C23.8038 88.8909 24.3238 88.5549 24.9158 87.8829C24.3878 87.8189 23.9558 87.1869 23.6198 85.9869C23.0918 86.8669 22.8278 87.5549 22.8278 88.0509C22.8278 88.6109 23.0038 88.8909 23.3558 88.8909ZM34.4274 89.8509C33.4994 89.8509 33.0354 89.1789 33.0354 87.8349C33.0354 87.1789 33.1794 86.2029 33.4674 84.9069C32.7954 86.2189 32.2594 87.1389 31.8594 87.6669C31.0114 88.8509 30.2194 89.4429 29.4834 89.4429C28.7314 89.4429 28.3554 88.9469 28.3554 87.9549C28.3554 86.4349 29.1634 84.8189 30.7794 83.1069C32.3954 81.3949 33.9794 80.4509 35.5314 80.2749C35.8834 79.4269 36.2274 78.6189 36.5634 77.8509C36.8994 77.0829 37.2194 76.3549 37.5234 75.6669C37.6514 75.3949 37.7954 75.0829 37.9554 74.7309C38.1314 74.3789 38.3234 73.9869 38.5314 73.5549C38.8034 73.1869 39.2354 73.0029 39.8274 73.0029C40.0514 73.0029 40.1634 73.0589 40.1634 73.1709C40.1634 73.1709 40.1474 73.2029 40.1154 73.2669C39.9874 73.5229 39.8114 73.8509 39.5874 74.2509C39.3794 74.6509 39.1394 75.1069 38.8674 75.6189C38.4354 76.4509 38.0114 77.2749 37.5954 78.0909C37.1954 78.8909 36.8114 79.6669 36.4434 80.4189C36.6354 80.4669 36.7314 80.6109 36.7314 80.8509C36.7314 81.1709 36.5314 81.6509 36.1314 82.2909C35.7474 82.9309 35.4274 83.3469 35.1714 83.5389C35.0114 83.8429 34.8674 84.1949 34.7394 84.5949C34.6114 84.9949 34.4834 85.4269 34.3554 85.8909C34.2434 86.3549 34.1554 86.7869 34.0914 87.1869C34.0434 87.5869 34.0194 87.9469 34.0194 88.2669C34.0194 89.0509 34.2274 89.4429 34.6434 89.4429C35.1234 89.4429 35.7074 89.0109 36.3954 88.1469C36.6194 87.8749 37.0514 87.2269 37.6914 86.2029C37.7714 86.1069 37.8274 86.0589 37.8594 86.0589C37.9074 86.0589 37.9314 86.0829 37.9314 86.1309C37.9314 86.1309 37.9154 86.1789 37.8834 86.2749C36.6514 88.6589 35.4994 89.8509 34.4274 89.8509ZM29.6034 88.5549C30.7714 88.5549 31.9154 87.2509 33.0354 84.6429C32.7314 84.7389 32.4834 84.7869 32.2914 84.7869C32.2274 84.7869 32.1954 84.7549 32.1954 84.6909C32.1954 84.5949 32.3074 84.5149 32.5314 84.4509C32.7554 84.3709 33.0194 84.2269 33.3234 84.0189C33.3874 83.8589 33.4514 83.6829 33.5154 83.4909C33.5954 83.2829 33.6674 83.0589 33.7314 82.8189C33.7794 82.6909 33.8354 82.6269 33.8994 82.6269C34.0114 82.6269 34.0674 82.6989 34.0674 82.8429C34.0674 82.9869 33.9954 83.2509 33.8514 83.6349L34.2834 83.3229L35.2914 80.8269C34.1074 81.0829 32.7634 81.9549 31.2594 83.4429C29.7234 84.9949 28.9554 86.3469 28.9554 87.4989C28.9554 88.2029 29.1714 88.5549 29.6034 88.5549ZM35.1497 99.2349C34.2537 99.2349 33.3177 98.8669 32.3417 98.1309C31.3657 97.3949 30.8777 96.6269 30.8777 95.8269C30.8777 95.7629 30.9017 95.7309 30.9497 95.7309C31.0137 95.7309 31.0537 95.7789 31.0697 95.8749C31.7417 97.5549 32.9577 98.3949 34.7177 98.3949C35.6137 98.3949 36.4457 98.1789 37.2137 97.7469C38.7017 96.9149 39.8617 95.6109 40.6937 93.8349C40.9497 93.2749 41.1977 92.5629 41.4377 91.6989C41.6937 90.8509 41.9337 89.8509 42.1577 88.6989C42.2537 88.1869 42.3737 87.5469 42.5177 86.7789C42.6617 86.0109 42.8697 85.1229 43.1417 84.1149L43.5497 82.6269C42.5417 83.4109 41.3337 85.6589 39.9257 89.3709C39.9257 89.4029 39.8937 89.4189 39.8297 89.4189C39.7177 89.4189 39.5977 89.3629 39.4697 89.2509C39.3417 89.1389 39.2777 89.0189 39.2777 88.8909C39.2777 88.8909 39.3417 88.7229 39.4697 88.3869C39.6137 88.0669 39.6857 87.8989 39.6857 87.8829C39.9897 86.9869 40.1417 85.6749 40.1417 83.9469C40.1417 82.6349 39.8617 81.9789 39.3017 81.9789C38.9977 81.9789 38.6217 82.1869 38.1737 82.6029C37.7577 83.0029 37.5337 83.2029 37.5017 83.2029C37.4537 83.2029 37.4297 83.1709 37.4297 83.1069C37.4297 83.0909 37.4457 83.0349 37.4777 82.9389C37.7017 82.5869 38.0617 82.2349 38.5577 81.8829C39.0857 81.4989 39.5257 81.3069 39.8777 81.3069C40.5497 81.3069 40.8857 81.9549 40.8857 83.2509C40.8857 84.3069 40.6697 85.4749 40.2377 86.7549C41.5657 84.3069 42.6937 82.8429 43.6217 82.3629C43.8617 81.4989 44.1337 80.8909 44.4377 80.5389C44.8377 80.0429 45.4297 79.7949 46.2137 79.7949C46.5017 79.7949 46.6457 79.8429 46.6457 79.9389C46.6457 79.9869 46.6057 80.0269 46.5257 80.0589C46.3177 80.1069 46.1337 80.1709 45.9737 80.2509C45.2377 80.7789 44.6137 82.1469 44.1017 84.3549C43.7177 85.9709 43.4217 87.2189 43.2137 88.0989C43.0057 88.9629 42.8857 89.4589 42.8537 89.5869C42.2617 91.7309 41.5897 93.4909 40.8377 94.8669C39.8617 96.6109 38.6617 97.8829 37.2377 98.6829C36.5817 99.0509 35.8857 99.2349 35.1497 99.2349ZM41.9614 94.0749C41.1934 94.0749 40.8094 93.8269 40.8094 93.3309C40.8094 92.9789 40.9134 92.7229 41.1214 92.5629C41.0734 92.7229 41.0494 92.8829 41.0494 93.0429C41.0494 93.5069 41.3694 93.7389 42.0094 93.7389C43.0974 93.7389 44.3694 93.1949 45.8254 92.1069C45.4894 91.9309 45.2014 91.7389 44.9614 91.5309C43.6174 92.5869 42.6334 93.1149 42.0094 93.1149C41.7694 93.1149 41.6494 93.0429 41.6494 92.8989C41.6494 92.7869 41.7134 92.7309 41.8414 92.7309C41.8734 92.7309 41.9214 92.7389 41.9854 92.7549C42.0334 92.7709 42.0734 92.7789 42.1054 92.7789C42.7134 92.7789 43.6094 92.3149 44.7934 91.3869C44.2654 90.8749 44.0014 90.3549 44.0014 89.8269C44.0014 88.7069 45.0334 87.7069 47.0974 86.8269C47.5134 86.6509 47.9694 86.4989 48.4654 86.3709C48.9774 86.2269 49.5294 86.0989 50.1214 85.9869C50.3294 85.7149 50.5214 85.4589 50.6974 85.2189C50.8734 84.9629 51.0254 84.7229 51.1534 84.4989C51.1054 84.0829 51.0814 83.7389 51.0814 83.4669C51.0814 82.4589 51.2654 81.9549 51.6334 81.9549C51.8574 81.9549 52.0334 82.2109 52.1614 82.7229C52.3214 82.4989 52.5134 82.1869 52.7374 81.7869C52.9614 81.3709 53.2094 80.8669 53.4814 80.2749C53.8974 79.4109 54.2894 78.5229 54.6574 77.6109C55.0254 76.6989 55.3694 75.7629 55.6894 74.8029C55.7534 74.6269 55.8254 74.4989 55.9054 74.4189C55.9214 74.4349 55.9294 74.4669 55.9294 74.5149C55.9294 75.7309 54.8174 78.4109 52.5934 82.5549C52.8174 82.4429 52.9934 82.3869 53.1214 82.3869C53.2174 82.3869 53.2654 82.4429 53.2654 82.5549C53.2654 82.9709 52.6254 83.6749 51.3454 84.6669C51.2334 84.8589 51.0974 85.0669 50.9374 85.2909C50.7934 85.4989 50.6334 85.7149 50.4574 85.9389C50.8094 85.8749 51.2094 85.8269 51.6574 85.7949C52.2974 84.8989 52.9134 83.9709 53.5054 83.0109C54.0974 82.0509 54.6654 81.0589 55.2094 80.0349C56.6174 77.4109 57.3214 75.4429 57.3214 74.1309C57.3214 73.3629 56.9774 72.9229 56.2894 72.8109C56.1454 72.7789 56.0734 72.7309 56.0734 72.6669C56.0734 72.5709 56.1614 72.5229 56.3374 72.5229C56.9614 72.5229 57.4414 72.7229 57.7774 73.1229C58.1134 73.5069 58.2814 74.0109 58.2814 74.6349C58.2814 76.0269 57.6174 77.9389 56.2894 80.3709C55.7934 81.2829 55.2494 82.1869 54.6574 83.0829C54.0654 83.9629 53.4414 84.8349 52.7854 85.6989C53.0574 85.6669 53.4414 85.6429 53.9374 85.6269C54.4334 85.5949 55.0254 85.5629 55.7134 85.5309C56.1774 85.5149 56.5134 85.5069 56.7214 85.5069C56.9294 85.4909 57.0254 85.4829 57.0094 85.4829C57.1054 85.4829 57.1534 85.5069 57.1534 85.5549C57.1534 85.7149 56.9934 85.8109 56.6734 85.8429C56.3694 85.8589 55.9134 85.8909 55.3054 85.9389C54.7134 85.9709 54.1694 86.0109 53.6734 86.0589C53.1934 86.0909 52.7694 86.1309 52.4014 86.1789C50.3534 88.7389 48.3934 90.7149 46.5214 92.1069C46.9374 92.3149 47.6894 92.5149 48.7774 92.7069C48.9214 92.7229 48.9934 92.7709 48.9934 92.8509C48.9934 92.9309 48.9134 92.9709 48.7534 92.9709C48.0494 92.9709 47.2174 92.7469 46.2574 92.2989C44.5934 93.4829 43.1614 94.0749 41.9614 94.0749ZM60.9694 92.5149C60.3774 92.5149 59.7614 92.2589 59.1214 91.7469C58.4974 91.2349 58.0494 90.6749 57.7774 90.0669C57.4254 89.2989 57.2494 88.1949 57.2494 86.7549C57.2494 86.3229 57.3134 85.5469 57.4414 84.4269C57.5694 83.2909 57.7134 81.8189 57.8734 80.0109L58.0894 77.5869C58.1054 77.2829 58.1614 77.1309 58.2574 77.1309C58.4334 77.1309 58.5214 77.3069 58.5214 77.6589V81.6909C58.5214 86.0909 58.8814 89.1229 59.6014 90.7869C60.0334 91.7789 60.5374 92.2749 61.1134 92.2749C61.8654 92.2749 62.6974 91.5469 63.6094 90.0909C63.5934 90.3949 63.4174 90.7709 63.0814 91.2189C62.7294 91.6989 62.4174 92.0189 62.1454 92.1789C61.7454 92.4029 61.3534 92.5149 60.9694 92.5149ZM46.1134 91.8909C47.7134 90.6109 49.4174 88.7709 51.2254 86.3709C50.9854 86.4189 50.7454 86.4749 50.5054 86.5389C50.2814 86.5869 50.0574 86.6429 49.8334 86.7069C48.4574 88.3549 46.9694 89.8509 45.3694 91.1949C45.4494 91.3229 45.5534 91.4429 45.6814 91.5549C45.8094 91.6669 45.9534 91.7789 46.1134 91.8909ZM45.2494 91.0269C45.9694 90.4349 46.6734 89.7869 47.3614 89.0829C48.0654 88.3789 48.7614 87.6269 49.4494 86.8269C48.4094 87.1629 47.5054 87.5949 46.7374 88.1229C45.6494 88.8429 45.1054 89.5869 45.1054 90.3549C45.1054 90.5789 45.1534 90.8029 45.2494 91.0269ZM62.4868 89.7549C62.3748 89.7549 62.2308 89.7069 62.0548 89.6109C61.8788 89.4989 61.7908 89.3949 61.7908 89.2989L62.0788 88.6509C62.3508 88.0269 62.6068 87.4189 62.8468 86.8269C63.1028 86.2189 63.3108 85.6109 63.4708 85.0029C63.6308 84.4589 63.7108 83.7869 63.7108 82.9869C63.6628 83.1469 63.5588 83.3789 63.3988 83.6829C63.2388 83.9869 63.0228 84.3709 62.7508 84.8349C62.4948 85.2829 62.2628 85.6589 62.0548 85.9629C61.8628 86.2509 61.7028 86.4829 61.5748 86.6589C61.5748 86.6749 61.5588 86.6829 61.5268 86.6829C61.4468 86.6829 61.4068 86.6509 61.4068 86.5869C61.4068 86.5549 61.4148 86.5309 61.4308 86.5149L62.1748 85.3389C62.6068 84.6509 62.9508 84.0269 63.2068 83.4669C63.4628 82.8909 63.6468 82.3869 63.7588 81.9549C63.8548 81.5389 64.0148 81.3309 64.2388 81.3309C64.4948 81.3309 64.6228 81.6509 64.6228 82.2909C64.6228 83.4429 64.2548 84.8589 63.5188 86.5389C64.3828 85.4509 64.9828 84.7309 65.3188 84.3789C66.2308 83.4029 66.9428 82.9149 67.4548 82.9149C67.9668 82.9149 68.2228 83.2509 68.2228 83.9229C68.2228 84.3869 68.0948 84.7949 67.8388 85.1469C67.5348 85.5949 67.2548 85.8189 66.9988 85.8189C66.9508 85.8189 66.9268 85.7869 66.9268 85.7229C66.9268 85.7229 67.0148 85.5229 67.1908 85.1229C67.3668 84.7229 67.4548 84.3789 67.4548 84.0909C67.4548 83.6589 67.3188 83.4429 67.0468 83.4429C66.6308 83.4429 66.0068 83.9309 65.1748 84.9069C64.8228 85.3069 64.5188 85.6829 64.2628 86.0349C64.0068 86.3709 63.7988 86.6749 63.6388 86.9469C63.6228 86.9949 63.5428 87.1869 63.3988 87.5229C63.2548 87.8589 63.0708 88.3549 62.8468 89.0109L62.6068 89.7069C62.5748 89.7389 62.5348 89.7549 62.4868 89.7549ZM71.841 90.0189C71.041 90.0189 70.641 89.5309 70.641 88.5549C70.641 87.8509 70.817 86.9789 71.169 85.9389C71.105 85.7309 70.993 85.5469 70.833 85.3869C70.689 85.2109 70.481 85.0669 70.209 84.9549L68.913 84.4269C68.705 84.3309 68.601 84.1629 68.601 83.9229C68.601 83.6669 68.713 83.5149 68.937 83.4669H69.585C70.433 83.4669 71.321 83.3709 72.249 83.1789L72.273 83.1309L73.857 79.6269L74.553 78.0189C74.681 77.7309 74.993 77.5869 75.489 77.5869C75.825 77.5869 75.993 77.6669 75.993 77.8269C75.993 77.8909 75.697 78.5709 75.105 79.8669C74.513 81.1789 74.177 81.8749 74.097 81.9549L73.689 82.3389L73.401 82.9149C73.641 82.8349 74.049 82.6989 74.625 82.5069C75.217 82.2989 75.977 82.0349 76.905 81.7149C76.969 81.6989 77.025 81.6909 77.073 81.6909C77.121 81.6749 77.153 81.6669 77.169 81.6669C77.233 81.6669 77.265 81.6829 77.265 81.7149C77.265 81.9869 75.913 82.5069 73.209 83.2749C72.889 83.8989 72.617 84.4349 72.393 84.8829C72.169 85.3149 72.001 85.6669 71.889 85.9389C71.473 86.9949 71.265 87.9469 71.265 88.7949C71.265 89.3229 71.441 89.5869 71.793 89.5869C72.225 89.5869 72.793 89.2829 73.497 88.6749L74.577 87.7389C74.625 87.7389 74.649 87.7629 74.649 87.8109C74.649 87.8589 74.625 87.9309 74.577 88.0269C74.321 88.4109 73.913 88.8189 73.353 89.2509C72.697 89.7629 72.193 90.0189 71.841 90.0189ZM71.265 85.6029C71.377 85.2829 71.497 84.9549 71.625 84.6189C71.769 84.2829 71.921 83.9389 72.081 83.5869C71.681 83.6829 71.273 83.7709 70.857 83.8509C70.457 83.9309 70.057 84.0029 69.657 84.0669C70.489 84.4989 71.025 85.0109 71.265 85.6029Z" fill="white"/>
</svg>
