<svg width="78" height="105" viewBox="0 0 78 105" fill="none" xmlns="http://www.w3.org/2000/svg">
<path d="M14.4842 72.704C12.6602 72.704 10.8602 72.08 9.0842 70.832C7.1642 69.488 6.2042 67.904 6.2042 66.08C6.2042 63.824 7.3802 62.12 9.7322 60.968C11.5082 60.056 13.6682 59.6 16.2122 59.6C17.5562 59.6 18.9722 59.72 20.4602 59.96C21.9482 60.2 23.5322 60.56 25.2122 61.04C28.7162 56.816 31.7882 51.488 34.4282 45.056C34.0922 43.952 33.8282 42.992 33.6362 42.176C33.4922 41.312 33.4202 40.568 33.4202 39.944C33.4202 38.216 33.7562 37.352 34.4282 37.352C35.1962 37.352 35.8682 38.12 36.4442 39.656C38.1722 36.248 39.9002 30.368 41.6282 22.016C31.6442 22.352 23.9882 25.256 18.6602 30.728C16.7402 32.648 15.7802 34.832 15.7802 37.28C15.7802 39.2 16.4282 40.952 17.7242 42.536C18.8762 43.976 20.4122 45.08 22.3322 45.848C22.6202 45.944 23.0042 46.064 23.4842 46.208C23.9642 46.352 24.5162 46.496 25.1402 46.64C25.4282 46.688 25.5722 46.784 25.5722 46.928C25.5722 47.168 25.4042 47.288 25.0682 47.288L24.8522 47.216C21.8762 46.976 19.0922 45.752 16.5002 43.544C13.6682 41.144 12.2522 38.504 12.2522 35.624C12.2522 33.464 13.1402 31.496 14.9162 29.72C17.9402 26.6 22.1402 24.296 27.5162 22.808C31.9802 21.512 36.7802 20.864 41.9162 20.864C42.0122 19.856 42.1562 18.824 42.3482 17.768C42.5882 16.664 42.8522 15.56 43.1402 14.456C43.3322 14.504 43.4282 15.056 43.4282 16.112C43.4282 16.736 43.3802 17.456 43.2842 18.272C43.1882 19.04 43.0442 19.904 42.8522 20.864C44.6762 20.912 46.4522 21.032 48.1802 21.224C49.9562 21.368 51.6602 21.632 53.2922 22.016C56.2202 19.328 59.1962 17.984 62.2202 17.984C63.9962 17.984 65.4842 18.608 66.6842 19.856C67.8842 21.104 68.4842 22.616 68.4842 24.392C68.4842 25.064 68.3642 25.4 68.1242 25.4C67.9322 25.4 67.7642 24.728 67.6202 23.384C67.3322 21.224 65.7722 20.144 62.9402 20.144C61.0202 20.144 58.9322 21.056 56.6762 22.88C59.6522 23.792 62.1962 25.088 64.3082 26.768C66.9482 28.832 68.2682 31.208 68.2682 33.896C68.2682 37.16 66.3962 39.728 62.6522 41.6C59.7722 43.088 56.5082 43.928 52.8602 44.12C62.7962 48.728 67.7642 54.176 67.7642 60.464C67.7642 63.44 66.5162 65.936 64.0202 67.952C61.5722 69.968 58.8122 70.976 55.7402 70.976C51.1322 70.976 47.0522 70.4 43.5002 69.248L32.1242 64.568C30.7802 66.152 29.4602 67.472 28.1642 68.528C26.9162 69.632 25.6682 70.448 24.4202 70.976C21.9722 72.128 18.6602 72.704 14.4842 72.704ZM29.9642 62.624C31.9322 60.464 34.1642 56.72 36.6602 51.392C37.8122 48.896 38.9642 46.424 40.1162 43.976C41.2682 41.48 42.4442 38.984 43.6442 36.488C45.1802 33.416 46.6682 30.752 48.1082 28.496C49.5962 26.24 51.0362 24.368 52.4282 22.88C49.3562 22.304 46.2842 22.016 43.2122 22.016H42.6362C41.6282 26.672 39.9722 32.36 37.6682 39.08C38.3402 38.696 38.8442 38.504 39.1802 38.504C39.5642 38.504 39.7562 38.744 39.7562 39.224C39.7562 40.568 38.1962 42.68 35.0762 45.56C33.7322 48.632 32.2922 51.488 30.7562 54.128C29.2682 56.72 27.6362 59.096 25.8602 61.256C26.5322 61.448 27.2042 61.664 27.8762 61.904C28.5962 62.144 29.2922 62.384 29.9642 62.624ZM55.2362 69.464C61.7162 69.464 64.9562 67.256 64.9562 62.84C64.9562 56.936 60.9482 52.04 52.9322 48.152C52.4522 47.96 51.8522 47.72 51.1322 47.432C50.4122 47.096 49.5722 46.712 48.6122 46.28C48.4682 46.184 48.3962 45.944 48.3962 45.56C48.3962 44.216 49.0922 43.4 50.4842 43.112H51.9242C52.3562 43.064 52.7882 43.016 53.2202 42.968C53.6522 42.92 54.0602 42.872 54.4442 42.824C57.2762 42.296 59.5802 41.336 61.3562 39.944C63.5642 38.312 64.6682 36.2 64.6682 33.608C64.6682 31.256 63.7322 29.144 61.8602 27.272C60.2282 25.736 58.1882 24.56 55.7402 23.744C52.8602 26.384 50.1002 30.392 47.4602 35.768L40.7642 50.456C38.1242 56.168 35.5322 60.536 32.9882 63.56L43.8602 67.448C47.9402 68.792 51.7322 69.464 55.2362 69.464ZM14.9882 71.048C17.4842 71.048 20.1482 70.304 22.9802 68.816C25.9082 67.328 28.0202 65.6 29.3162 63.632C28.6922 63.296 28.0442 62.984 27.3722 62.696C26.7482 62.408 26.0522 62.144 25.2842 61.904C22.4522 65.312 20.0042 67.016 17.9402 67.016C16.9322 67.016 16.4282 66.728 16.4282 66.152C16.4282 65.912 16.5722 65.792 16.8602 65.792C16.9562 65.792 17.1482 65.816 17.4362 65.864C17.7242 65.96 17.9402 66.008 18.0842 66.008C19.9082 66.008 22.0922 64.592 24.6362 61.76C21.5642 60.752 18.6362 60.248 15.8522 60.248C13.8842 60.248 12.1082 60.584 10.5242 61.256C8.5082 62.12 7.5002 63.464 7.5002 65.288C7.5002 67.016 8.3402 68.432 10.0202 69.536C11.5562 70.544 13.2122 71.048 14.9882 71.048Z" fill="black"/>
<path d="M2.805 93.7366C2.197 93.7366 1.597 93.5286 1.005 93.1126C0.364996 92.6646 0.0449961 92.1366 0.0449961 91.5286C0.0449961 90.7766 0.436996 90.2086 1.221 89.8246C1.813 89.5206 2.533 89.3686 3.381 89.3686C3.829 89.3686 4.301 89.4086 4.797 89.4886C5.293 89.5686 5.821 89.6886 6.381 89.8486C7.549 88.4406 8.573 86.6646 9.453 84.5206C9.341 84.1526 9.253 83.8326 9.189 83.5606C9.141 83.2726 9.117 83.0246 9.117 82.8166C9.117 82.2406 9.229 81.9526 9.453 81.9526C9.709 81.9526 9.933 82.2086 10.125 82.7206C10.701 81.5846 11.277 79.6246 11.853 76.8406C8.525 76.9526 5.973 77.9206 4.197 79.7446C3.557 80.3846 3.237 81.1126 3.237 81.9286C3.237 82.5686 3.453 83.1526 3.885 83.6806C4.269 84.1606 4.781 84.5286 5.421 84.7846C5.517 84.8166 5.645 84.8566 5.805 84.9046C5.965 84.9526 6.149 85.0006 6.357 85.0486C6.453 85.0646 6.501 85.0966 6.501 85.1446C6.501 85.2246 6.445 85.2646 6.333 85.2646L6.261 85.2406C5.269 85.1606 4.341 84.7526 3.477 84.0166C2.533 83.2166 2.061 82.3366 2.061 81.3766C2.061 80.6566 2.357 80.0006 2.949 79.4086C3.957 78.3686 5.357 77.6006 7.149 77.1046C8.637 76.6726 10.237 76.4566 11.949 76.4566C11.981 76.1206 12.029 75.7766 12.093 75.4246C12.173 75.0566 12.261 74.6886 12.357 74.3206C12.421 74.3366 12.453 74.5206 12.453 74.8726C12.453 75.0806 12.437 75.3206 12.405 75.5926C12.373 75.8486 12.325 76.1366 12.261 76.4566C12.869 76.4726 13.461 76.5126 14.037 76.5766C14.629 76.6246 15.197 76.7126 15.741 76.8406C16.717 75.9446 17.709 75.4966 18.717 75.4966C19.309 75.4966 19.805 75.7046 20.205 76.1206C20.605 76.5366 20.805 77.0406 20.805 77.6326C20.805 77.8566 20.765 77.9686 20.685 77.9686C20.621 77.9686 20.565 77.7446 20.517 77.2966C20.421 76.5766 19.901 76.2166 18.957 76.2166C18.317 76.2166 17.621 76.5206 16.869 77.1286C17.861 77.4326 18.709 77.8646 19.413 78.4246C20.293 79.1126 20.733 79.9046 20.733 80.8006C20.733 81.8886 20.109 82.7446 18.861 83.3686C17.901 83.8646 16.813 84.1446 15.597 84.2086C18.909 85.7446 20.565 87.5606 20.565 89.6566C20.565 90.6486 20.149 91.4806 19.317 92.1526C18.501 92.8246 17.581 93.1606 16.557 93.1606C15.021 93.1606 13.661 92.9686 12.477 92.5846L8.685 91.0246C8.237 91.5526 7.797 91.9926 7.365 92.3446C6.949 92.7126 6.533 92.9846 6.117 93.1606C5.301 93.5446 4.197 93.7366 2.805 93.7366ZM7.965 90.3766C8.621 89.6566 9.365 88.4086 10.197 86.6326C10.581 85.8006 10.965 84.9766 11.349 84.1606C11.733 83.3286 12.125 82.4966 12.525 81.6646C13.037 80.6406 13.533 79.7526 14.013 79.0006C14.509 78.2486 14.989 77.6246 15.453 77.1286C14.429 76.9366 13.405 76.8406 12.381 76.8406H12.189C11.853 78.3926 11.301 80.2886 10.533 82.5286C10.757 82.4006 10.925 82.3366 11.037 82.3366C11.165 82.3366 11.229 82.4166 11.229 82.5766C11.229 83.0246 10.709 83.7286 9.669 84.6886C9.221 85.7126 8.741 86.6646 8.229 87.5446C7.733 88.4086 7.189 89.2006 6.597 89.9206C6.821 89.9846 7.045 90.0566 7.269 90.1366C7.509 90.2166 7.741 90.2966 7.965 90.3766ZM16.389 92.6566C18.549 92.6566 19.629 91.9206 19.629 90.4486C19.629 88.4806 18.293 86.8486 15.621 85.5526C15.461 85.4886 15.261 85.4086 15.021 85.3126C14.781 85.2006 14.501 85.0726 14.181 84.9286C14.133 84.8966 14.109 84.8166 14.109 84.6886C14.109 84.2406 14.341 83.9686 14.805 83.8726H15.285C15.429 83.8566 15.573 83.8406 15.717 83.8246C15.861 83.8086 15.997 83.7926 16.125 83.7766C17.069 83.6006 17.837 83.2806 18.429 82.8166C19.165 82.2726 19.533 81.5686 19.533 80.7046C19.533 79.9206 19.221 79.2166 18.597 78.5926C18.053 78.0806 17.373 77.6886 16.557 77.4166C15.597 78.2966 14.677 79.6326 13.797 81.4246L11.565 86.3206C10.685 88.2246 9.821 89.6806 8.973 90.6886L12.597 91.9846C13.957 92.4326 15.221 92.6566 16.389 92.6566ZM2.973 93.1846C3.805 93.1846 4.693 92.9366 5.637 92.4406C6.613 91.9446 7.317 91.3686 7.749 90.7126C7.541 90.6006 7.325 90.4966 7.101 90.4006C6.893 90.3046 6.661 90.2166 6.405 90.1366C5.461 91.2726 4.645 91.8406 3.957 91.8406C3.621 91.8406 3.453 91.7446 3.453 91.5526C3.453 91.4726 3.501 91.4326 3.597 91.4326C3.629 91.4326 3.693 91.4406 3.789 91.4566C3.885 91.4886 3.957 91.5046 4.005 91.5046C4.613 91.5046 5.341 91.0326 6.189 90.0886C5.165 89.7526 4.189 89.5846 3.261 89.5846C2.605 89.5846 2.013 89.6966 1.485 89.9206C0.812996 90.2086 0.476996 90.6566 0.476996 91.2646C0.476996 91.8406 0.756996 92.3126 1.317 92.6806C1.829 93.0166 2.381 93.1846 2.973 93.1846ZM23.3047 91.0966C22.6807 91.0966 22.3687 90.6966 22.3687 89.8966C22.3687 88.9206 22.7367 87.9206 23.4727 86.8966C23.2167 86.2726 23.0887 85.6086 23.0887 84.9046C23.0887 84.2166 23.2247 83.6166 23.4967 83.1046C24.0087 82.0966 24.6647 81.5926 25.4647 81.5926C26.4567 81.5926 27.0327 82.4406 27.1927 84.1366C27.5927 84.1526 27.8887 84.2806 28.0807 84.5206C28.2887 84.7446 28.3927 85.0646 28.3927 85.4806C28.3927 85.8006 28.3527 86.0326 28.2727 86.1766C28.2087 86.3046 28.1447 86.3686 28.0807 86.3686C28.0167 86.3686 27.9847 86.3366 27.9847 86.2726C27.9847 86.1926 27.9927 86.0966 28.0087 85.9846C28.0407 85.8726 28.0567 85.7366 28.0567 85.5766C28.0567 85.3526 27.9767 85.1846 27.8167 85.0726C27.6567 84.9446 27.4567 84.8806 27.2167 84.8806C27.0247 86.8326 26.5527 88.3286 25.8007 89.3686H26.5447C26.3367 89.4966 26.1527 89.5606 25.9927 89.5606C25.9607 89.5606 25.9127 89.5526 25.8487 89.5366C25.8007 89.5206 25.7607 89.5126 25.7287 89.5126C25.7607 89.5286 25.4807 89.7926 24.8887 90.3046C24.2647 90.8326 23.7367 91.0966 23.3047 91.0966ZM23.7367 86.6326C24.7127 85.3206 25.7367 84.5046 26.8087 84.1846C26.4887 82.8086 26.0487 82.1206 25.4887 82.1206C24.9767 82.1206 24.5047 82.6246 24.0727 83.6326C23.8007 84.3046 23.6647 85.0166 23.6647 85.7686C23.6647 86.0726 23.6887 86.3606 23.7367 86.6326ZM25.0327 89.2486C25.4167 88.8966 25.8087 88.2086 26.2087 87.1846C26.6247 86.1286 26.8327 85.3526 26.8327 84.8566C26.4807 84.9046 25.9287 85.2326 25.1767 85.8406C24.4407 86.4326 23.9847 86.9046 23.8087 87.2566C24.1447 88.4726 24.5527 89.1366 25.0327 89.2486ZM23.3767 90.3766C23.8247 90.3766 24.3447 90.0406 24.9367 89.3686C24.4087 89.3046 23.9767 88.6726 23.6407 87.4726C23.1127 88.3526 22.8487 89.0406 22.8487 89.5366C22.8487 90.0966 23.0247 90.3766 23.3767 90.3766ZM34.4484 91.3366C33.5204 91.3366 33.0564 90.6646 33.0564 89.3206C33.0564 88.6646 33.2004 87.6886 33.4884 86.3926C32.8164 87.7046 32.2804 88.6246 31.8804 89.1526C31.0324 90.3366 30.2404 90.9286 29.5044 90.9286C28.7524 90.9286 28.3764 90.4326 28.3764 89.4406C28.3764 87.9206 29.1844 86.3046 30.8004 84.5926C32.4164 82.8806 34.0004 81.9366 35.5524 81.7606C35.9044 80.9126 36.2484 80.1046 36.5844 79.3366C36.9204 78.5686 37.2404 77.8406 37.5444 77.1526C37.6724 76.8806 37.8164 76.5686 37.9764 76.2166C38.1524 75.8646 38.3444 75.4726 38.5524 75.0406C38.8244 74.6726 39.2564 74.4886 39.8484 74.4886C40.0724 74.4886 40.1844 74.5446 40.1844 74.6566C40.1844 74.6566 40.1684 74.6886 40.1364 74.7526C40.0084 75.0086 39.8324 75.3366 39.6084 75.7366C39.4004 76.1366 39.1604 76.5926 38.8884 77.1046C38.4564 77.9366 38.0324 78.7606 37.6164 79.5766C37.2164 80.3766 36.8324 81.1526 36.4644 81.9046C36.6564 81.9526 36.7524 82.0966 36.7524 82.3366C36.7524 82.6566 36.5524 83.1366 36.1524 83.7766C35.7684 84.4166 35.4484 84.8326 35.1924 85.0246C35.0324 85.3286 34.8884 85.6806 34.7604 86.0806C34.6324 86.4806 34.5044 86.9126 34.3764 87.3766C34.2644 87.8406 34.1764 88.2726 34.1124 88.6726C34.0644 89.0726 34.0404 89.4326 34.0404 89.7526C34.0404 90.5366 34.2484 90.9286 34.6644 90.9286C35.1444 90.9286 35.7284 90.4966 36.4164 89.6326C36.6404 89.3606 37.0724 88.7126 37.7124 87.6886C37.7924 87.5926 37.8484 87.5446 37.8804 87.5446C37.9284 87.5446 37.9524 87.5686 37.9524 87.6166C37.9524 87.6166 37.9364 87.6646 37.9044 87.7606C36.6724 90.1446 35.5204 91.3366 34.4484 91.3366ZM29.6244 90.0406C30.7924 90.0406 31.9364 88.7366 33.0564 86.1286C32.7524 86.2246 32.5044 86.2726 32.3124 86.2726C32.2484 86.2726 32.2164 86.2406 32.2164 86.1766C32.2164 86.0806 32.3284 86.0006 32.5524 85.9366C32.7764 85.8566 33.0404 85.7126 33.3444 85.5046C33.4084 85.3446 33.4724 85.1686 33.5364 84.9766C33.6164 84.7686 33.6884 84.5446 33.7524 84.3046C33.8004 84.1766 33.8564 84.1126 33.9204 84.1126C34.0324 84.1126 34.0884 84.1846 34.0884 84.3286C34.0884 84.4726 34.0164 84.7366 33.8724 85.1206L34.3044 84.8086L35.3124 82.3126C34.1284 82.5686 32.7844 83.4406 31.2804 84.9286C29.7444 86.4806 28.9764 87.8326 28.9764 88.9846C28.9764 89.6886 29.1924 90.0406 29.6244 90.0406ZM35.1707 100.721C34.2747 100.721 33.3387 100.353 32.3627 99.6166C31.3867 98.8806 30.8987 98.1126 30.8987 97.3126C30.8987 97.2486 30.9227 97.2166 30.9707 97.2166C31.0347 97.2166 31.0747 97.2646 31.0907 97.3606C31.7627 99.0406 32.9787 99.8806 34.7387 99.8806C35.6347 99.8806 36.4667 99.6646 37.2347 99.2326C38.7227 98.4006 39.8827 97.0966 40.7147 95.3206C40.9707 94.7606 41.2187 94.0486 41.4587 93.1846C41.7147 92.3366 41.9547 91.3366 42.1787 90.1846C42.2747 89.6726 42.3947 89.0326 42.5387 88.2646C42.6827 87.4966 42.8907 86.6086 43.1627 85.6006L43.5707 84.1126C42.5627 84.8966 41.3547 87.1446 39.9467 90.8566C39.9467 90.8886 39.9147 90.9046 39.8507 90.9046C39.7387 90.9046 39.6187 90.8486 39.4907 90.7366C39.3627 90.6246 39.2987 90.5046 39.2987 90.3766C39.2987 90.3766 39.3627 90.2086 39.4907 89.8726C39.6347 89.5526 39.7067 89.3846 39.7067 89.3686C40.0107 88.4726 40.1627 87.1606 40.1627 85.4326C40.1627 84.1206 39.8827 83.4646 39.3227 83.4646C39.0187 83.4646 38.6427 83.6726 38.1947 84.0886C37.7787 84.4886 37.5547 84.6886 37.5227 84.6886C37.4747 84.6886 37.4507 84.6566 37.4507 84.5926C37.4507 84.5766 37.4667 84.5206 37.4987 84.4246C37.7227 84.0726 38.0827 83.7206 38.5787 83.3686C39.1067 82.9846 39.5467 82.7926 39.8987 82.7926C40.5707 82.7926 40.9067 83.4406 40.9067 84.7366C40.9067 85.7926 40.6907 86.9606 40.2587 88.2406C41.5867 85.7926 42.7147 84.3286 43.6427 83.8486C43.8827 82.9846 44.1547 82.3766 44.4587 82.0246C44.8587 81.5286 45.4507 81.2806 46.2347 81.2806C46.5227 81.2806 46.6667 81.3286 46.6667 81.4246C46.6667 81.4726 46.6267 81.5126 46.5467 81.5446C46.3387 81.5926 46.1547 81.6566 45.9947 81.7366C45.2587 82.2646 44.6347 83.6326 44.1227 85.8406C43.7387 87.4566 43.4427 88.7046 43.2347 89.5846C43.0267 90.4486 42.9067 90.9446 42.8747 91.0726C42.2827 93.2166 41.6107 94.9766 40.8587 96.3526C39.8827 98.0966 38.6827 99.3686 37.2587 100.169C36.6027 100.537 35.9067 100.721 35.1707 100.721ZM41.9824 95.5606C41.2144 95.5606 40.8304 95.3126 40.8304 94.8166C40.8304 94.4646 40.9344 94.2086 41.1424 94.0486C41.0944 94.2086 41.0704 94.3686 41.0704 94.5286C41.0704 94.9926 41.3904 95.2246 42.0304 95.2246C43.1184 95.2246 44.3904 94.6806 45.8464 93.5926C45.5104 93.4166 45.2224 93.2246 44.9824 93.0166C43.6384 94.0726 42.6544 94.6006 42.0304 94.6006C41.7904 94.6006 41.6704 94.5286 41.6704 94.3846C41.6704 94.2726 41.7344 94.2166 41.8624 94.2166C41.8944 94.2166 41.9424 94.2246 42.0064 94.2406C42.0544 94.2566 42.0944 94.2646 42.1264 94.2646C42.7344 94.2646 43.6304 93.8006 44.8144 92.8726C44.2864 92.3606 44.0224 91.8406 44.0224 91.3126C44.0224 90.1926 45.0544 89.1926 47.1184 88.3126C47.5344 88.1366 47.9904 87.9846 48.4864 87.8566C48.9984 87.7126 49.5504 87.5846 50.1424 87.4726C50.3504 87.2006 50.5424 86.9446 50.7184 86.7046C50.8944 86.4486 51.0464 86.2086 51.1744 85.9846C51.1264 85.5686 51.1024 85.2246 51.1024 84.9526C51.1024 83.9446 51.2864 83.4406 51.6544 83.4406C51.8784 83.4406 52.0544 83.6966 52.1824 84.2086C52.3424 83.9846 52.5344 83.6726 52.7584 83.2726C52.9824 82.8566 53.2304 82.3526 53.5024 81.7606C53.9184 80.8966 54.3104 80.0086 54.6784 79.0966C55.0464 78.1846 55.3904 77.2486 55.7104 76.2886C55.7744 76.1126 55.8464 75.9846 55.9264 75.9046C55.9424 75.9206 55.9504 75.9526 55.9504 76.0006C55.9504 77.2166 54.8384 79.8966 52.6144 84.0406C52.8384 83.9286 53.0144 83.8726 53.1424 83.8726C53.2384 83.8726 53.2864 83.9286 53.2864 84.0406C53.2864 84.4566 52.6464 85.1606 51.3664 86.1526C51.2544 86.3446 51.1184 86.5526 50.9584 86.7766C50.8144 86.9846 50.6544 87.2006 50.4784 87.4246C50.8304 87.3606 51.2304 87.3126 51.6784 87.2806C52.3184 86.3846 52.9344 85.4566 53.5264 84.4966C54.1184 83.5366 54.6864 82.5446 55.2304 81.5206C56.6384 78.8966 57.3424 76.9286 57.3424 75.6166C57.3424 74.8486 56.9984 74.4086 56.3104 74.2966C56.1664 74.2646 56.0944 74.2166 56.0944 74.1526C56.0944 74.0566 56.1824 74.0086 56.3584 74.0086C56.9824 74.0086 57.4624 74.2086 57.7984 74.6086C58.1344 74.9926 58.3024 75.4966 58.3024 76.1206C58.3024 77.5126 57.6384 79.4246 56.3104 81.8566C55.8144 82.7686 55.2704 83.6726 54.6784 84.5686C54.0864 85.4486 53.4624 86.3206 52.8064 87.1846C53.0784 87.1526 53.4624 87.1286 53.9584 87.1126C54.4544 87.0806 55.0464 87.0486 55.7344 87.0166C56.1984 87.0006 56.5344 86.9926 56.7424 86.9926C56.9504 86.9766 57.0464 86.9686 57.0304 86.9686C57.1264 86.9686 57.1744 86.9926 57.1744 87.0406C57.1744 87.2006 57.0144 87.2966 56.6944 87.3286C56.3904 87.3446 55.9344 87.3766 55.3264 87.4246C54.7344 87.4566 54.1904 87.4966 53.6944 87.5446C53.2144 87.5766 52.7904 87.6166 52.4224 87.6646C50.3744 90.2246 48.4144 92.2006 46.5424 93.5926C46.9584 93.8006 47.7104 94.0006 48.7984 94.1926C48.9424 94.2086 49.0144 94.2566 49.0144 94.3366C49.0144 94.4166 48.9344 94.4566 48.7744 94.4566C48.0704 94.4566 47.2384 94.2326 46.2784 93.7846C44.6144 94.9686 43.1824 95.5606 41.9824 95.5606ZM60.9904 94.0006C60.3984 94.0006 59.7824 93.7446 59.1424 93.2326C58.5184 92.7206 58.0704 92.1606 57.7984 91.5526C57.4464 90.7846 57.2704 89.6806 57.2704 88.2406C57.2704 87.8086 57.3344 87.0326 57.4624 85.9126C57.5904 84.7766 57.7344 83.3046 57.8944 81.4966L58.1104 79.0726C58.1264 78.7686 58.1824 78.6166 58.2784 78.6166C58.4544 78.6166 58.5424 78.7926 58.5424 79.1446V83.1766C58.5424 87.5766 58.9024 90.6086 59.6224 92.2726C60.0544 93.2646 60.5584 93.7606 61.1344 93.7606C61.8864 93.7606 62.7184 93.0326 63.6304 91.5766C63.6144 91.8806 63.4384 92.2566 63.1024 92.7046C62.7504 93.1846 62.4384 93.5046 62.1664 93.6646C61.7664 93.8886 61.3744 94.0006 60.9904 94.0006ZM46.1344 93.3766C47.7344 92.0966 49.4384 90.2566 51.2464 87.8566C51.0064 87.9046 50.7664 87.9606 50.5264 88.0246C50.3024 88.0726 50.0784 88.1286 49.8544 88.1926C48.4784 89.8406 46.9904 91.3366 45.3904 92.6806C45.4704 92.8086 45.5744 92.9286 45.7024 93.0406C45.8304 93.1526 45.9744 93.2646 46.1344 93.3766ZM45.2704 92.5126C45.9904 91.9206 46.6944 91.2726 47.3824 90.5686C48.0864 89.8646 48.7824 89.1126 49.4704 88.3126C48.4304 88.6486 47.5264 89.0806 46.7584 89.6086C45.6704 90.3286 45.1264 91.0726 45.1264 91.8406C45.1264 92.0646 45.1744 92.2886 45.2704 92.5126ZM62.5078 91.2406C62.3958 91.2406 62.2518 91.1926 62.0758 91.0966C61.8998 90.9846 61.8118 90.8806 61.8118 90.7846L62.0998 90.1366C62.3718 89.5126 62.6278 88.9046 62.8678 88.3126C63.1238 87.7046 63.3318 87.0966 63.4918 86.4886C63.6518 85.9446 63.7318 85.2726 63.7318 84.4726C63.6838 84.6326 63.5798 84.8646 63.4198 85.1686C63.2598 85.4726 63.0438 85.8566 62.7718 86.3206C62.5158 86.7686 62.2838 87.1446 62.0758 87.4486C61.8838 87.7366 61.7238 87.9686 61.5958 88.1446C61.5958 88.1606 61.5798 88.1686 61.5478 88.1686C61.4678 88.1686 61.4278 88.1366 61.4278 88.0726C61.4278 88.0406 61.4358 88.0166 61.4518 88.0006L62.1958 86.8246C62.6278 86.1366 62.9718 85.5126 63.2278 84.9526C63.4838 84.3766 63.6678 83.8726 63.7798 83.4406C63.8758 83.0246 64.0358 82.8166 64.2598 82.8166C64.5158 82.8166 64.6438 83.1366 64.6438 83.7766C64.6438 84.9286 64.2758 86.3446 63.5398 88.0246C64.4038 86.9366 65.0038 86.2166 65.3398 85.8646C66.2518 84.8886 66.9638 84.4006 67.4758 84.4006C67.9878 84.4006 68.2438 84.7366 68.2438 85.4086C68.2438 85.8726 68.1158 86.2806 67.8598 86.6326C67.5558 87.0806 67.2758 87.3046 67.0198 87.3046C66.9718 87.3046 66.9478 87.2726 66.9478 87.2086C66.9478 87.2086 67.0358 87.0086 67.2118 86.6086C67.3878 86.2086 67.4758 85.8646 67.4758 85.5766C67.4758 85.1446 67.3398 84.9286 67.0678 84.9286C66.6518 84.9286 66.0278 85.4166 65.1958 86.3926C64.8438 86.7926 64.5398 87.1686 64.2838 87.5206C64.0278 87.8566 63.8198 88.1606 63.6598 88.4326C63.6438 88.4806 63.5638 88.6726 63.4198 89.0086C63.2758 89.3446 63.0918 89.8406 62.8678 90.4966L62.6278 91.1926C62.5958 91.2246 62.5558 91.2406 62.5078 91.2406ZM71.862 91.5046C71.062 91.5046 70.662 91.0166 70.662 90.0406C70.662 89.3366 70.838 88.4646 71.19 87.4246C71.126 87.2166 71.014 87.0326 70.854 86.8726C70.71 86.6966 70.502 86.5526 70.23 86.4406L68.934 85.9126C68.726 85.8166 68.622 85.6486 68.622 85.4086C68.622 85.1526 68.734 85.0006 68.958 84.9526H69.606C70.454 84.9526 71.342 84.8566 72.27 84.6646L72.294 84.6166L73.878 81.1126L74.574 79.5046C74.702 79.2166 75.014 79.0726 75.51 79.0726C75.846 79.0726 76.014 79.1526 76.014 79.3126C76.014 79.3766 75.718 80.0566 75.126 81.3526C74.534 82.6646 74.198 83.3606 74.118 83.4406L73.71 83.8246L73.422 84.4006C73.662 84.3206 74.07 84.1846 74.646 83.9926C75.238 83.7846 75.998 83.5206 76.926 83.2006C76.99 83.1846 77.046 83.1766 77.094 83.1766C77.142 83.1606 77.174 83.1526 77.19 83.1526C77.254 83.1526 77.286 83.1686 77.286 83.2006C77.286 83.4726 75.934 83.9926 73.23 84.7606C72.91 85.3846 72.638 85.9206 72.414 86.3686C72.19 86.8006 72.022 87.1526 71.91 87.4246C71.494 88.4806 71.286 89.4326 71.286 90.2806C71.286 90.8086 71.462 91.0726 71.814 91.0726C72.246 91.0726 72.814 90.7686 73.518 90.1606L74.598 89.2246C74.646 89.2246 74.67 89.2486 74.67 89.2966C74.67 89.3446 74.646 89.4166 74.598 89.5126C74.342 89.8966 73.934 90.3046 73.374 90.7366C72.718 91.2486 72.214 91.5046 71.862 91.5046ZM71.286 87.0886C71.398 86.7686 71.518 86.4406 71.646 86.1046C71.79 85.7686 71.942 85.4246 72.102 85.0726C71.702 85.1686 71.294 85.2566 70.878 85.3366C70.478 85.4166 70.078 85.4886 69.678 85.5526C70.51 85.9846 71.046 86.4966 71.286 87.0886Z" fill="black"/>
</svg>
